<svg width="225.0" height="100.0"> <svg width="75.0" height="100.0" x="0" overflow="visible"> <g transform="scale(0.750000)
translate(9.375000, 6.250000)"> <svg fill="#111" x="0" y="0%" width="100%" height="10%"> <rect width="30.0" height="100.0" x="0" y="0"></rect> <rect width="30.0" height="100.0" x="45.0" y="0"></rect></svg> <svg fill="#111" x="0" y="17%" width="100%" height="10%"> <rect width="30.0" height="100.0" x="0" y="0"></rect> <rect width="30.0" height="100.0" x="45.0" y="0"></rect></svg> <svg fill="#111" x="0" y="35%" width="100%" height="10%"> <rect width="30.0" height="100.0" x="0" y="0"></rect> <rect width="30.0" height="100.0" x="45.0" y="0"></rect></svg> <svg fill="#f10" x="0" y="53%" width="100%" height="10%"> <rect width="75.0" height="100.0" x="0" y="0"></rect></svg> <svg fill="#f10" x="0" y="70%" width="100%" height="10%"> <rect width="75.0" height="100.0" x="0" y="0"></rect></svg> <svg fill="#f10" x="0" y="88%" width="100%" height="10%"> <rect width="75.0" height="100.0" x="0" y="0"></rect></svg></g> <text x="37.5" y="95.0" dominant-baseline="middle" text-anchor="middle" fill="nil"> 地天泰</text></svg> <svg width="75.0" height="100.0" x="75.0" overflow="visible"> <g transform="scale(0.750000)
translate(9.375000, 6.250000)"> <svg fill="#111" x="0" y="0%" width="100%" height="10%"> <rect width="30.0" height="100.0" x="0" y="0"></rect> <rect width="30.0" height="100.0" x="45.0" y="0"></rect></svg> <svg fill="#111" x="0" y="17%" width="100%" height="10%"> <rect width="30.0" height="100.0" x="0" y="0"></rect> <rect width="30.0" height="100.0" x="45.0" y="0"></rect></svg> <svg fill="#f10" x="0" y="35%" width="100%" height="10%"> <rect width="75.0" height="100.0" x="0" y="0"></rect></svg> <svg fill="#111" x="0" y="53%" width="100%" height="10%"> <rect width="30.0" height="100.0" x="0" y="0"></rect> <rect width="30.0" height="100.0" x="45.0" y="0"></rect></svg> <svg fill="#f10" x="0" y="70%" width="100%" height="10%"> <rect width="75.0" height="100.0" x="0" y="0"></rect></svg> <svg fill="#f10" x="0" y="88%" width="100%" height="10%"> <rect width="75.0" height="100.0" x="0" y="0"></rect></svg></g> <text x="37.5" y="95.0" dominant-baseline="middle" text-anchor="middle" fill="nil"> 雷泽归妹</text></svg> <svg width="75.0" height="100.0" x="150.0" overflow="visible"> <g transform="scale(0.750000)
translate(9.375000, 6.250000)"> <svg fill="#111" x="0" y="0%" width="100%" height="10%"> <rect width="30.0" height="100.0" x="0" y="0"></rect> <rect width="30.0" height="100.0" x="45.0" y="0"></rect></svg> <svg fill="#111" x="0" y="17%" width="100%" height="10%"> <rect width="30.0" height="100.0" x="0" y="0"></rect> <rect width="30.0" height="100.0" x="45.0" y="0"></rect></svg> <svg fill="#111" x="0" y="35%" width="100%" height="10%"> <rect width="30.0" height="100.0" x="0" y="0"></rect> <rect width="30.0" height="100.0" x="45.0" y="0"></rect></svg> <svg fill="#f10" x="0" y="53%" width="100%" height="10%"> <rect width="75.0" height="100.0" x="0" y="0"></rect></svg> <svg fill="#111" x="0" y="70%" width="100%" height="10%"> <rect width="30.0" height="100.0" x="0" y="0"></rect> <rect width="30.0" height="100.0" x="45.0" y="0"></rect></svg> <svg fill="#f10" x="0" y="88%" width="100%" height="10%"> <rect width="75.0" height="100.0" x="0" y="0"></rect></svg></g> <text x="37.5" y="95.0" dominant-baseline="middle" text-anchor="middle" fill="nil"> 地火明夷</text></svg></svg>